HIERARCHY
ROOT hip
{
	OFFSET 0.000000 0.000000 0.000000 
	CHANNELS 6 Xposition Yposition Zposition Xrotation Zrotation Yrotation
	JOINT abdomen
	{
		OFFSET 0.000000 3.402643 0.000000 
		CHANNELS 3 Xrotation Zrotation Yrotation
		JOINT chest
		{
			OFFSET 0.000000 8.438565 -0.680529 
			CHANNELS 3 Xrotation Zrotation Yrotation
			JOINT neck
			{
				OFFSET 0.000000 10.207942 -0.272212 
				CHANNELS 3 Xrotation Zrotation Yrotation
				JOINT head
				{
					OFFSET 0.000000 3.130431 0.000000 
					CHANNELS 3 Xrotation Zrotation Yrotation
					End Site
					{
						OFFSET 0.000000 3.130435 0.000000 
					}
				}
			}
			JOINT lCollar
			{
				OFFSET 3.470700 6.669187 -0.816635 
				CHANNELS 3 Yrotation Zrotation Xrotation
				JOINT lShldr
				{
					OFFSET 3.198488 0.000000 0.000000 
					CHANNELS 3 Zrotation Yrotation Xrotation
					JOINT lForeArm
					{
						OFFSET 10.139888 0.000000 0.000000 
						CHANNELS 3 Yrotation Zrotation Xrotation
						JOINT lHand
						{
							OFFSET 8.370511 0.000000 0.000000 
							CHANNELS 3 Zrotation Yrotation Xrotation
							End Site
							{
								OFFSET 4.083176 0.000000 0.000000 
							}
						}
					}
				}
			}
			JOINT rCollar
			{
				OFFSET -3.470700 6.669187 -0.816635 
				CHANNELS 3 Yrotation Zrotation Xrotation
				JOINT rShldr
				{
					OFFSET -3.198488 0.000000 0.000000 
					CHANNELS 3 Zrotation Yrotation Xrotation
					JOINT rForeArm
					{
						OFFSET -10.139888 0.000000 0.000000 
						CHANNELS 3 Yrotation Zrotation Xrotation
						JOINT rHand
						{
							OFFSET -8.370511 0.000000 0.000000 
							CHANNELS 3 Zrotation Yrotation Xrotation
							End Site
							{
								OFFSET -4.083176 0.000000 0.000000 
							}
						}
					}
				}
			}
		}
	}
	JOINT lThigh
	{
		OFFSET 5.308129 -1.633274 1.361059 
		CHANNELS 3 Xrotation Zrotation Yrotation
		JOINT lShin
		{
			OFFSET -2.041588 -20.007561 0.000000 
			CHANNELS 3 Xrotation Zrotation Yrotation
			JOINT lFoot
			{
				OFFSET 0.000000 -19.190928 -1.224953 
				CHANNELS 3 Xrotation Yrotation Zrotation
				End Site
				{
					OFFSET 0.000000 -2.449906 4.627600 
				}
			}
		}
	}
	JOINT rThigh
	{
		OFFSET -5.308129 -1.633274 1.361059 
		CHANNELS 3 Xrotation Zrotation Yrotation
		JOINT rShin
		{
			OFFSET 2.041588 -20.007561 0.000000 
			CHANNELS 3 Xrotation Zrotation Yrotation
			JOINT rFoot
			{
				OFFSET 0.000000 -19.190928 -1.224953 
				CHANNELS 3 Xrotation Yrotation Zrotation
				End Site
				{
					OFFSET 0.000000 -2.449906 4.627600 
				}
			}
		}
	}
}
MOTION
Frames: 18
Frame Time: 0.033333
-58.759666 39.996845 54.387333 173.671890 179.296875 4.043089 17.138672 10.693359 6.826173 -20.722656 4.697266 2.256659 -10.517579 -14.335938 -29.072264 12.343750 11.621095 -30.359358 -0.380859 6.416016 0.205078 -55.244141 43.886723 74.052734 -107.763672 -3.496094 -69.599014 4.970703 2.636719 0.107423 -4.003906 5.214844 -0.361328 53.476563 -2.197266 -28.994518 38.740231 2.949219 -30.244143 -2.919922 24.042969 -0.654297 -42.162670 13.328613 -5.797683 92.293045 2.079527 -4.058966 -14.246289 3.311261 -4.158346 -30.964386 -6.142277 -1.480972 82.124245 -1.943187 3.294856 -39.552383 -15.538916 -7.465741 
-59.539745 39.992908 53.470135 173.671890 -179.833984 2.802706 19.345703 9.580078 6.808266 -19.667969 4.169922 2.803444 -12.636719 -14.687502 -29.042969 12.519532 11.445313 -30.359388 -0.908203 6.406250 0.263667 -55.400391 43.916012 73.554688 -107.636719 -3.486328 -69.492188 5.322265 2.285156 0.087891 -2.958984 4.668010 -0.313290 54.384762 -2.001953 -29.765623 39.550777 3.076172 -32.988285 -2.919922 23.867188 -0.654297 -47.475777 12.099143 -10.315867 90.185234 2.255678 -3.797673 -16.271067 6.119785 -3.180651 -29.437111 -6.678636 1.066896 81.772476 -1.952963 3.283798 -39.563396 -16.087391 -7.941910 
-60.404015 39.955345 52.524429 173.847672 -178.945313 1.572086 21.894533 8.417969 6.925257 -18.437500 3.466797 3.164653 -14.570312 -14.863280 -29.035707 12.695313 11.093751 -30.349682 -1.435547 6.406250 0.322260 -55.761719 43.818359 73.085938 -107.402344 -3.515625 -69.091194 5.478516 1.425781 -0.097413 -2.255860 4.140625 -0.380859 54.794922 -1.582031 -29.990503 40.527344 3.251953 -35.811100 -3.105469 23.867188 -0.660110 -51.306732 11.054691 -14.341790 85.441368 1.942845 -3.963640 -17.972637 7.988718 -2.641684 -28.032753 -7.557751 3.874716 81.596008 -1.962519 3.288831 -39.272949 -17.357855 -8.731649 
-61.371643 39.871403 51.530319 174.023453 -177.890625 -0.010125 24.443359 7.080078 7.012922 -17.558592 3.105469 3.535685 -15.830078 -15.371093 -28.779299 13.056641 11.269531 -30.339888 -1.591797 6.230469 0.164956 -55.849609 43.671875 73.007813 -106.904297 -3.525390 -68.505852 4.951172 0.537109 -0.068359 -1.923828 3.603516 -0.253906 55.107422 -1.015625 -30.205078 41.337891 3.271485 -37.324219 -3.291015 24.218752 -0.669821 -54.308773 9.854383 -17.327925 79.821495 1.718591 -3.943390 -19.570290 8.820027 -2.232491 -26.509100 -8.612206 6.516448 81.404724 -2.314318 3.337137 -39.266121 -18.661552 -10.094272 
-62.447803 39.715557 50.479801 174.023453 -176.835938 -1.592336 27.060545 6.201171 6.308595 -16.855469 2.753906 4.423828 -17.060547 -15.546875 -28.759768 13.583983 11.445313 -30.322266 -1.591797 6.054688 0.166016 -55.625004 43.398434 73.349617 -106.445305 -3.525390 -67.968155 4.599609 -1.035156 -0.224609 -1.748047 3.427734 -0.263672 54.794918 -0.175781 -30.107422 42.275391 3.251954 -39.053291 -3.544922 24.560547 -0.917969 -56.644890 9.502376 -18.766272 73.655991 1.395667 -4.492874 -18.778755 7.689266 -2.361398 -25.268511 -9.842935 9.708447 81.040390 -2.470546 3.505311 -38.710560 -19.959881 -10.632128 
-63.614933 39.471825 49.349159 174.199234 -175.957031 -3.360063 29.833986 5.146484 6.123923 -16.679688 2.402344 4.775800 -17.949221 -15.722656 -28.750002 13.759765 11.621094 -30.488285 -1.767578 5.878906 0.175781 -55.039063 43.544926 73.942276 -106.240234 -3.505859 -67.821671 4.423829 -2.441406 -0.225025 -1.748047 3.251953 -0.273438 54.443356 0.429687 -30.107422 43.027344 3.212891 -40.312500 -3.720703 24.560547 -0.927734 -58.050678 9.502774 -18.781733 68.405754 0.839762 -4.272691 -15.824777 3.549793 -3.990833 -23.821747 -11.414663 13.112057 81.039948 -2.480162 3.506971 -38.009064 -20.546625 -10.931678 
-64.870193 39.124592 48.127056 174.550781 -175.253906 -5.117996 32.607422 4.267578 5.996821 -16.328125 2.050781 4.951172 -18.828125 -15.722656 -28.749998 13.759766 11.445313 -30.488281 -1.943359 6.054688 0.204048 -54.531250 43.544922 74.443359 -105.976563 -3.515625 -67.431046 3.896484 -3.320312 -0.195312 -2.099609 3.076172 -0.254430 54.033203 1.562500 -30.117306 43.671879 3.281250 -41.221264 -3.544922 24.736328 -0.917969 -58.934376 9.853517 -17.221502 66.279160 0.673840 -4.304723 -11.410201 -1.526249 -5.426444 -22.739491 -13.338752 16.045671 81.580872 -2.304758 3.340725 -36.853653 -20.634748 -10.234460 
-66.183151 38.706413 46.843784 174.726563 -174.550781 -6.875928 35.751953 3.437500 5.703125 -15.625002 2.226563 5.136719 -19.902346 -16.064455 -28.544920 13.759765 11.621094 -30.664063 -1.767578 5.703125 0.166016 -54.384766 42.978512 74.394531 -105.546875 -3.437500 -67.352936 3.720703 -3.320313 -0.185547 -2.451172 2.558594 -0.263672 53.447262 3.037110 -30.556641 44.462891 3.359375 -41.640625 -3.369141 24.736326 -0.908203 -59.721905 10.019674 -14.523036 68.946899 0.507386 -4.187102 -9.839645 -5.175460 -5.780613 -22.258295 -15.281217 18.943958 82.445869 -2.480184 3.545323 -34.340569 -21.343355 -9.317535 
-67.485977 38.286568 45.560387 -5.097656 -5.986328 171.541946 38.554691 2.666016 5.244595 -14.746093 2.568359 5.508250 -20.820314 -16.562502 -28.164064 13.759766 11.796874 -30.312500 -1.591797 5.185547 0.136719 -54.257813 41.738285 74.755859 -104.980469 -3.544922 -67.030640 3.554688 -3.837891 -0.352216 -2.636719 2.031250 -0.273438 52.773438 4.589844 -31.708990 45.146484 3.320313 -41.963451 -3.115234 24.570311 -0.660002 -60.181732 9.833961 -11.321984 72.984314 0.881379 -4.109913 -12.213637 -5.969271 -6.332443 -23.067995 -17.029045 21.585949 84.031624 -2.675723 3.275973 -29.694866 -21.826399 -7.626145 
-68.699738 37.962234 44.339718 -5.458984 -6.337891 170.145401 41.015625 2.060547 4.843750 -13.330078 3.623047 6.055305 -21.406248 -17.226563 -27.590782 13.583984 12.147978 -29.618111 -1.416016 4.306641 0.097656 -54.179688 39.980469 75.709404 -104.531250 -3.437500 -67.148438 3.378906 -4.550781 -0.342572 -2.988281 0.966797 -0.136884 52.138668 6.123046 -32.998047 45.888672 3.427734 -43.330082 -2.675781 24.404467 -0.474491 -60.451656 8.935531 -8.969113 76.501076 1.271599 -3.794460 -15.448839 -5.218764 -6.957772 -25.776287 -18.104418 23.383835 86.820885 -2.831697 3.532039 -22.426994 -22.655787 -4.710924 
-69.765038 37.801258 43.229107 -6.152343 -6.337891 169.256729 43.310547 1.787109 4.560852 -11.923828 4.492188 6.777343 -21.650393 -16.806643 -26.689455 13.583984 12.323754 -28.739164 -1.416016 3.603516 0.087277 -53.710938 38.046871 77.031250 -104.326172 -3.437500 -66.826172 3.212890 -5.605469 -0.332031 -2.998047 0.087891 -0.185560 51.513672 7.353516 -34.080784 46.416016 3.369141 -45.048828 -2.500000 24.931643 -0.464632 -60.567352 8.241607 -7.232048 79.302490 1.612667 -3.815922 -18.421997 -4.447642 -6.746770 -30.643723 -17.929516 24.307604 91.028687 -3.192989 3.808297 -12.678033 -23.148800 -0.402189 
-70.662079 37.780388 42.208160 -6.865234 -5.800781 168.564453 45.771484 1.787109 4.560852 -10.507813 4.833984 7.500823 -21.318361 -15.341797 -26.093750 13.056641 12.148438 -27.878803 -1.591797 3.603516 0.097042 -53.779297 37.128906 77.490234 -104.121101 -3.496094 -66.123047 2.861328 -6.308594 -0.313573 -2.822266 -0.625000 -0.038956 51.347656 7.939454 -34.824219 46.621094 3.476563 -46.289650 -2.949219 25.976564 -0.654297 -60.334614 7.890197 -6.192082 81.226273 1.954337 -3.773137 -21.906752 -3.408340 -7.163596 -36.762066 -17.060230 23.477053 95.776581 -3.544589 3.528314 -4.512354 -22.749500 3.051324 
-71.389107 37.834885 41.231815 -7.734375 -5.107422 168.202255 48.046875 1.728516 4.726562 -9.804688 5.185547 8.037992 -20.117188 -13.710938 -25.517576 12.519532 11.972656 -27.019459 -2.119140 4.121094 0.145783 -54.853516 37.656254 76.802841 -103.750000 -3.447266 -65.917381 2.333984 -6.484375 -0.283203 -1.943359 -1.855469 -0.068043 51.904297 7.724610 -34.988922 47.197262 3.515625 -47.851563 -3.847656 27.011719 -1.083984 -60.111458 7.704628 -5.382406 82.280228 1.915022 -3.852812 -23.801853 -3.209110 -6.753787 -43.427063 -16.367195 20.525000 99.986008 -3.858973 3.593168 -3.413107 -18.997286 3.527797 
-71.992935 37.922764 40.250580 -8.623046 -4.580078 167.684601 50.156250 1.894531 4.785479 -9.804688 5.361329 8.564453 -18.193359 -12.265624 -25.107426 11.455077 12.148438 -26.523438 -2.988281 5.361329 0.086978 -56.113281 39.091797 76.044922 -103.535156 -3.457031 -66.786522 1.435547 -6.308594 -0.059667 -0.527344 -3.085938 0.146484 52.822266 6.425781 -34.882813 47.792969 3.447265 -49.189453 -4.931641 27.675785 -1.611328 -60.056385 7.704926 -4.723501 83.503326 1.934417 -4.053663 -24.878748 -2.971446 -7.058529 -50.195724 -15.829800 15.924060 104.923904 -4.081149 3.370021 -6.633765 -13.650990 3.141626 
-72.531540 37.986317 39.217827 -9.501953 -4.052734 167.148438 52.080078 1.943359 5.175782 -10.332031 5.712891 8.916016 -16.269533 -11.904298 -24.960936 10.576172 12.499999 -26.201174 -4.404297 6.054688 0.292969 -57.666016 40.634766 75.302734 -103.310547 -3.515625 -67.284554 0.732422 -6.484361 -0.020632 1.054688 -4.843735 0.098481 54.052738 4.550782 -34.667194 48.271484 3.652344 -50.058594 -6.015625 28.154295 -2.060547 -60.103310 8.065871 -3.683868 85.091614 1.758101 -4.094778 -25.251522 -3.682756 -7.536065 -56.787357 -15.809492 9.790183 107.911858 -4.256855 3.324056 -9.532639 -8.868107 3.332744 
-73.010773 37.990253 38.099949 -10.029296 -3.876953 166.278625 53.828125 2.050781 5.400391 -11.386719 5.722657 9.073238 -14.873046 -11.894530 -24.787172 9.863281 12.851563 -26.218531 -5.800781 6.767579 0.311349 -58.457027 42.363281 75.289780 -103.242188 -3.515625 -67.246094 0.908203 -6.835938 -0.029297 2.802735 -5.898438 0.108425 55.244141 2.441406 -34.589428 48.515621 3.574219 -50.507816 -6.298828 28.486330 -2.226563 -59.753468 8.593176 -2.413384 86.677856 1.934016 -3.836216 -25.134218 -4.343534 -7.586486 -63.050495 -16.005127 2.822458 108.417282 -4.053331 3.559535 -11.382891 -5.890977 3.712332 
-73.435867 37.877090 36.900021 -10.556642 -3.515625 165.058594 55.400391 2.099609 5.791373 -12.617188 5.556641 9.229312 -14.335937 -12.080078 -24.943449 9.160156 13.027343 -26.425779 -6.845703 6.953125 0.291787 -58.847652 43.945313 74.928650 -103.105469 -3.496094 -67.167969 0.380859 -6.484375 -0.001103 4.736328 -6.777344 0.214844 56.308590 0.556641 -34.882813 48.623047 3.564453 -50.381470 -5.849610 28.515627 -2.050781 -58.927288 9.441753 -0.273529 88.773117 2.098386 -4.087596 -25.846529 -3.917534 -6.898011 -68.619759 -15.975775 -4.849152 106.514618 -3.876402 3.089611 -13.177280 -5.535231 3.821948 
-73.785255 37.618935 35.585979 -10.722657 -3.349610 163.632813 56.435547 2.148437 6.182006 -13.496094 5.556641 9.219696 -14.335937 -12.617188 -25.080259 8.447267 13.378908 -26.794615 -7.705078 6.972656 0.224609 -58.886715 45.234375 74.811623 -102.958984 -3.525390 -66.708389 0.029297 -6.308594 0.029297 6.308594 -6.962891 0.245325 56.572269 -1.064453 -35.127129 48.369141 3.554688 -49.726563 -5.380859 28.007811 -1.782523 -57.786541 10.350240 1.194890 90.729012 1.904067 -3.987144 -26.825758 -4.238687 -7.374974 -72.909042 -15.996026 -13.186236 101.775101 -3.525371 3.107492 -15.176250 -6.231091 3.357953 
